<mxfile host="app.diagrams.net" modified="2023-12-15T01:54:48.538Z" agent="Mozilla/5.0 (Windows NT 10.0; Win64; x64) AppleWebKit/537.36 (KHTML, like Gecko) Chrome/118.0.0.0 Safari/537.36 OPR/104.0.0.0" version="22.1.9" etag="Ll36J7RBZ1OL2JeHhvn9" type="github">
  <diagram name="PÃ¡gina-1" id="P8d16oWLMbX7F6ohDgGL">
    <mxGraphModel>
      <root>
        <mxCell id="0" />
        <mxCell id="1" parent="0" />
      </root>
    </mxGraphModel>
  </diagram>
</mxfile>
